<?xml version="1.0" standalone="yes"?>
<svg xmlns="http://www.w3.org/2000/svg" width="800" height="215">
<path style="fill:#151616; stroke:none;" d="M0 0L0 215L67 215C64.6502 209.547 60.4898 205.155 62 199L49 200L49 199L55 199L53 196L59 196L58 199L65 192L66 192C63.5166 198.868 66.835 211.081 74.3256 214.397C78.8012 216.378 86.1774 215 91 215C94.7531 215 100.323 215.999 103.671 213.972C113.208 208.199 112.086 197.685 111 189L112 192L116 191C120.072 198.257 129.732 196 137 196L137 197L134 198L134 199L144 199L144 200C127.173 200 117.312 197.53 110 215L152 215L146 203L150 209L151 209L152 206L156 211L155 215L156 215L157 213L171 215L203 215L326 215L800 215L800 0L404 0C404 4.98521 411.96 21.3065 416 24C418.48 25.6533 427.89 24 431 24C433.118 24 440.397 25.2024 442 24C445.711 21.2168 446.993 9.99837 451 11L450 9L451 13L455 8L456 8L451 18L450 18L449 15L448 15L447 17L447 18L448 23L445 21L445 24L447 23L447 24L448 31L446 30L446 31L446 32L449 31L450 38L448 37L449 41L448 41C443.943 29.919 427.537 23.2324 416.329 30.0278C405.437 36.6313 403.576 51.5113 409.139 61C412.09 66.0342 414.227 73.5811 421 73L420 75L433 75L433 76C422.613 74.4486 413.992 79.7364 410 89L409 89L411 84L410 84L403 92L408 86C407.978 80.3468 411.969 76.6953 409.083 71C406.714 66.3246 402.837 58.0329 398.53 54.9529C395.41 52.7217 390.567 53.9594 387 53.9961C383.066 54.0366 376.859 52.8244 373.39 55.0278C360.715 63.0767 361.876 77.3458 368 88C369.825 91.1755 371.575 95.8755 375.185 97.3966C380.527 99.6473 389.252 98 395 98L395 99C385.634 99.8271 376.11 97.2972 368 103C371.05 79.462 334.427 66.4759 325 89L324 89C322.999 78.1519 326.207 60.784 312.815 54.2739C304.779 50.3677 294.27 57.0303 288 49C294.801 49 305.512 51.0512 311.815 48.3966C315.118 47.0057 316.881 42.9163 318.576 40C320.743 36.2694 324.69 31.4278 324.968 27C325.396 20.19 316.649 9.5314 313 4L288 4L281 18L280 18L284 10L284 9L281 7L283 8L283 7L284 0L183 0C175.672 0 153.858 -3.55885 149 2C140.309 -4.08772 118.531 0 108 0L0 0z"/>
<path style="fill:#236674; stroke:none;" d="M148.333 0.666672L148.667 1.33333L148.333 0.666672M284 0L283 8L281 7L281 8L284 9L284 10L280 18L281 18L288 4L302 5L302 4L300 4L300 3L308 2L308 0L284 0z"/>
<path style="fill:#151616; stroke:none;" d="M286 0L287 1L286 0z"/>
<path style="fill:#1a9fb5; stroke:none;" d="M303 3L303 4C305.035 3.59291 315.181 1.27557 314 6L319 15L323 13L323 12L317 0L303 3z"/>
<path style="fill:#47a4b5; stroke:none;" d="M317 0L320 5L319 0L317 0z"/>
<path style="fill:#151616; stroke:none;" d="M319 0C319.782 5.97614 326.365 20.8562 332.213 23.3966C335.787 24.9493 341.18 24 345 24C348.157 24 352.683 24.7802 355.471 22.9722C360.927 19.4327 366.213 7.07436 368 1L319 0z"/>
<path style="fill:#236674; stroke:none;" d="M321 0L322 1L321 0M362 0L363 1L362 0M367 0L368 1L367 0z"/>
<path style="fill:#29e0ec; stroke:none;" d="M368 0C367.006 16.0068 347.742 31.9482 331.785 23.5355C325.079 19.9998 324.614 9.04506 318 5L323 12L323 13L320 14C323.173 22.7195 325.863 24.9113 323 34L323 39C326.587 36.0279 328.603 30.3378 333.043 28.6034C347.524 22.947 367.701 34.5275 367.702 51C367.702 55.8724 362.862 61.5278 361 66L368 62C375.255 50.0128 385.26 53 398 53L398 52L396 51L399 51L402 48L404 41L407 43L408 42C406.779 39.4749 406.648 38.582 409 37L413 27C406.429 32.1444 404.535 45.2854 396.896 48.3966C382.043 54.4454 362.391 42.9263 361.464 26.4244C361.285 23.2511 364.351 19.6245 365.85 17C372.23 5.82486 383.147 -1.0154 396.895 4.60339C404.404 7.67207 406.491 20.9041 413 26L411 23L414 23L403 0L368 0z"/>
<path style="fill:#47a4b5; stroke:none;" d="M403 0L404 1L403 0z"/>
<path style="fill:#236674; stroke:none;" d="M453 0L454 1L453 0M457 0L458 1L457 0M318.333 1.66667L318.667 2.33333L318.333 1.66667z"/>
<path style="fill:#1a9fb5; stroke:none;" d="M368 1L369 2L368 1z"/>
<path style="fill:#236674; stroke:none;" d="M403.333 1.66667L403.667 2.33333L403.333 1.66667M422 1L423 2L422 1M454 1C452.917 4.14302 451.052 6.75282 454 9L454 1M456 1L458 3L456 1M488 1L489 2L488 1M573 1L574 2L573 1z"/>
<path style="fill:#151616; stroke:none;" d="M287 2L288 3L287 2z"/>
<path style="fill:#47a4b5; stroke:none;" d="M300 3L300 4L303 4L300 3M304 3L305 4L304 3M306 3L306 4L313 4L306 3z"/>
<path style="fill:#236674; stroke:none;" d="M367 3L368 4L367 3M404 3L405 4L404 3M118 4L119 5L118 4M211 4L212 5L211 4M305 4L305 5L309 5L305 4M310.667 4.33333L311.333 4.66667L310.667 4.33333z"/>
<path style="fill:#47a4b5; stroke:none;" d="M313.667 4.33333L314.333 4.66667L313.667 4.33333z"/>
<path style="fill:#236674; stroke:none;" d="M373 4L373 5L392 5L373 4z"/>
<path style="fill:#151616; stroke:none;" d="M391.999 4.71065C387.115 4.74222 377.58 3.36705 373.39 6.02779C359.478 14.8622 360.342 38.0537 373.61 46.9722C377.9 49.8562 387.981 48.0907 392.996 47.9954C414.04 47.5954 413.129 4.57407 391.999 4.71065z"/>
<path style="fill:#236674; stroke:none;" d="M393 4L393 5L398 5L393 4z"/>
<path style="fill:#47a4b5; stroke:none;" d="M398 4L399 5L398 4M404 4L405 5L404 4z"/>
<path style="fill:#236674; stroke:none;" d="M458 4L456 8L457 8L458 4M461 4L462 5L461 4M468 4L469 5L468 4M472 4L473 5L472 4M479 4L480 5L479 4M489 4L491 6L489 4M202 5L203 6L202 5z"/>
<path style="fill:#151616; stroke:none;" d="M284.333 5.66667L284.667 6.33333L284.333 5.66667z"/>
<path style="fill:#236674; stroke:none;" d="M320 5L321 6L320 5M366 5L367 6L366 5z"/>
<path style="fill:#1a9fb5; stroke:none;" d="M372 5L373 6L372 5z"/>
<path style="fill:#47a4b5; stroke:none;" d="M399 5L400 6L399 5z"/>
<path style="fill:#236674; stroke:none;" d="M405 5L406 6L405 5M712 5L713 6L712 5M314 6L315 7L314 6z"/>
<path style="fill:#47a4b5; stroke:none;" d="M315 6L316 9L317 9L317 6L315 6M320 6L321 7L320 6z"/>
<path style="fill:#236674; stroke:none;" d="M399 6L400 7L399 6M462 6L463 7L462 6M116 7L117 8L116 7M201 7L202 8L201 7z"/>
<path style="fill:#1a9fb5; stroke:none;" d="M315 7L316 8L315 7z"/>
<path style="fill:#236674; stroke:none;" d="M321 7L322 8L321 7z"/>
<path style="fill:#47a4b5; stroke:none;" d="M365 7L366 8L365 7z"/>
<path style="fill:#1a9fb5; stroke:none;" d="M371 7L372 8L371 7z"/>
<path style="fill:#236674; stroke:none;" d="M393 7L394 8L393 7z"/>
<path style="fill:#47a4b5; stroke:none;" d="M400 7L401 8L400 7z"/>
<path style="fill:#236674; stroke:none;" d="M406 7L407 8L406 7M541 7L542 8L541 7M626 7L627 8L626 7z"/>
<path style="fill:#29e0ec; stroke:none;" d="M318 8L319 9L318 8z"/>
<path style="fill:#236674; stroke:none;" d="M364 8L365 9L364 8z"/>
<path style="fill:#47a4b5; stroke:none;" d="M370 8L371 9L370 8z"/>
<path style="fill:#236674; stroke:none;" d="M400 8L401 9L400 8M455 8L451 13L450 9L451 11L449 10C443.148 23.3922 437.515 24 424 24L424 25L431 25L431 26L427 29C438.339 29 442.479 30.6282 448 41L449 41L448 37L450 38L450 37L449 31L446 32L446 31L446 30L448 31L448 30L447 23L445 24L445 21L448 23C449.449 20.3407 450.378 18.7389 447 18L447 17L448 15L449 15L450 18L451 18L455 8M280 9L279 12L280 9M316 9L317 10L316 9z"/>
<path style="fill:#29e0ec; stroke:none;" d="M317 9L319 14L320 14L317 9z"/>
<path style="fill:#47a4b5; stroke:none;" d="M322 9L323 10L322 9z"/>
<path style="fill:#236674; stroke:none;" d="M370 9L371 10L370 9z"/>
<path style="fill:#1a9fb5; stroke:none;" d="M401 9L402 10L401 9z"/>
<path style="fill:#47a4b5; stroke:none;" d="M407 9L408 10L407 9z"/>
<path style="fill:#236674; stroke:none;" d="M492 9L493 10L492 9M540 9L539 11L540 9M710 9L711 10L710 9z"/>
<path style="fill:#47a4b5; stroke:none;" d="M317 10L318 11L317 10z"/>
<path style="fill:#236674; stroke:none;" d="M323 10L324 11L323 10M363 10L364 11L363 10z"/>
<path style="fill:#47a4b5; stroke:none;" d="M369 10L370 11L369 10z"/>
<path style="fill:#236674; stroke:none;" d="M374 10L375 11L374 10M408 10L409 11L408 10M114 11L115 12L114 11M317 11L318 12L317 11z"/>
<path style="fill:#47a4b5; stroke:none;" d="M323 11L324 12L323 11z"/>
<path style="fill:#236674; stroke:none;" d="M369 11L370 12L369 11z"/>
<path style="fill:#1a9fb5; stroke:none;" d="M402 11L403 12L402 11z"/>
<path style="fill:#47a4b5; stroke:none;" d="M408 11L409 12L408 11z"/>
<path style="fill:#236674; stroke:none;" d="M198 12L199 13L198 12M239 12L240 13L239 12z"/>
<path style="fill:#47a4b5; stroke:none;" d="M318 12L319 13L318 12z"/>
<path style="fill:#236674; stroke:none;" d="M324 12L325 13L324 12M335 12L334 15L335 15L335 12z"/>
<path style="fill:#1a9fb5; stroke:none;" d="M362 12L363 13L362 12z"/>
<path style="fill:#47a4b5; stroke:none;" d="M368 12L369 13L368 12M403 12L404 13L403 12z"/>
<path style="fill:#236674; stroke:none;" d="M409 12L410 13L409 12M494 12L495 13L494 12M538 12L537 14L538 12M278 13L276 17L279 17L278 13M318 13L319 14L318 13z"/>
<path style="fill:#47a4b5; stroke:none;" d="M324 13L325 14L324 13z"/>
<path style="fill:#236674; stroke:none;" d="M403 13L404 14L403 13z"/>
<path style="fill:#1a9fb5; stroke:none;" d="M406 13L407 14L406 13z"/>
<path style="fill:#236674; stroke:none;" d="M112 14L113 15L112 14M197 14L198 15L197 14z"/>
<path style="fill:#1a9fb5; stroke:none;" d="M325 14L326 15L325 14z"/>
<path style="fill:#47a4b5; stroke:none;" d="M361 14L362 15L361 14z"/>
<path style="fill:#236674; stroke:none;" d="M367 14L368 15L367 14z"/>
<path style="fill:#1a9fb5; stroke:none;" d="M404 14L405 15L404 14z"/>
<path style="fill:#236674; stroke:none;" d="M410 14L412 16L410 14z"/>
<path style="fill:#151616; stroke:none;" d="M450 14L451 15L450 14z"/>
<path style="fill:#236674; stroke:none;" d="M360 15L361 16L360 15z"/>
<path style="fill:#47a4b5; stroke:none;" d="M366 15L367 16L366 15z"/>
<path style="fill:#236674; stroke:none;" d="M393 15L394 16L393 15M404 15L405 16L404 15z"/>
<path style="fill:#47a4b5; stroke:none;" d="M410 15L411 16L410 15z"/>
<path style="fill:#236674; stroke:none;" d="M496 15L497 16L496 15M536 15L535 18L536 15M26 16L27 17L26 16z"/>
<path style="fill:#1a9fb5; stroke:none;" d="M320 16L321 17L320 16M323 16L326 19L323 16M326 16L327 17L326 16z"/>
<path style="fill:#236674; stroke:none;" d="M366 16L367 17L366 16z"/>
<path style="fill:#1a9fb5; stroke:none;" d="M405 16L406 17L405 16M409 16L410 17L409 16z"/>
<path style="fill:#47a4b5; stroke:none;" d="M411 16L413 19L411 16z"/>
<path style="fill:#236674; stroke:none;" d="M195 17L193 21L195 17z"/>
<path style="fill:#47a4b5; stroke:none;" d="M321 17L322 18L321 17z"/>
<path style="fill:#236674; stroke:none;" d="M327 17L328 18L327 17M359 17L360 18L359 17z"/>
<path style="fill:#47a4b5; stroke:none;" d="M365 17L366 18L365 17z"/>
<path style="fill:#236674; stroke:none;" d="M412 17L413 18L412 17M620 17L621 18L620 17M705 17L706 18L705 17M242 18L243 19L242 18M279 18L276 28L277 28L279 18M321 18L322 19L321 18z"/>
<path style="fill:#1a9fb5; stroke:none;" d="M327 18L328 19L327 18z"/>
<path style="fill:#236674; stroke:none;" d="M406 18L407 19L406 18M497 18L498 19L497 18M24 19L25 20L24 19z"/>
<path style="fill:#47a4b5; stroke:none;" d="M322 19L323 20L322 19z"/>
<path style="fill:#236674; stroke:none;" d="M328 19L329 20L328 19z"/>
<path style="fill:#1a9fb5; stroke:none;" d="M358 19L359 20L358 19M364 19L365 20L364 19z"/>
<path style="fill:#47a4b5; stroke:none;" d="M407 19L408 20L407 19z"/>
<path style="fill:#236674; stroke:none;" d="M413 19L414 20L413 19z"/>
<path style="fill:#151616; stroke:none;" d="M447 19L448 20L447 19z"/>
<path style="fill:#236674; stroke:none;" d="M534 19L535 20L534 19M789 19L790 20L789 19M322 20L323 21L322 20M370.667 20.3333L371.333 20.6667L370.667 20.3333M390 20L391 21L390 20M407 20L408 21L407 20z"/>
<path style="fill:#1a9fb5; stroke:none;" d="M411 20L410 23L411 20z"/>
<path style="fill:#47a4b5; stroke:none;" d="M413 20L414 21L413 20z"/>
<path style="fill:#236674; stroke:none;" d="M542 20L543 21L542 20M618 20L619 21L618 20z"/>
<path style="fill:#1a9fb5; stroke:none;" d="M323 21L324 22L323 21z"/>
<path style="fill:#236674; stroke:none;" d="M329 21L330 22L329 21z"/>
<path style="fill:#1a9fb5; stroke:none;" d="M357 21L358 22L357 21z"/>
<path style="fill:#236674; stroke:none;" d="M363 21L364 22L363 21z"/>
<path style="fill:#1a9fb5; stroke:none;" d="M408 21L409 22L408 21z"/>
<path style="fill:#236674; stroke:none;" d="M414 21L416 23L414 21M499 21L500 22L499 21M533 21L532 23L533 21M788 21L789 22L788 21M356 22L357 23L356 22z"/>
<path style="fill:#47a4b5; stroke:none;" d="M362 22L363 23L362 22z"/>
<path style="fill:#236674; stroke:none;" d="M375 22L376 23L375 22M387 22L388 23L387 22z"/>
<path style="fill:#1a9fb5; stroke:none;" d="M412 22L411 23L411 26L411 27L413 28L408 35L408 36L417.043 28.4522L431 26L431 25L414 25L412 22z"/>
<path style="fill:#47a4b5; stroke:none;" d="M414 22L414 24L416 24L414 22z"/>
<path style="fill:#236674; stroke:none;" d="M297 23L298 24L297 23z"/>
<path style="fill:#1a9fb5; stroke:none;" d="M324 23L325 24L324 23z"/>
<path style="fill:#47a4b5; stroke:none;" d="M330 23L331 24L330 23z"/>
<path style="fill:#236674; stroke:none;" d="M362 23L363 24L362 23M409 23L410 24L409 23M21 24L22 25L21 24M191 24L192 25L191 24z"/>
<path style="fill:#47a4b5; stroke:none;" d="M332 24L333 25L332 24z"/>
<path style="fill:#1a9fb5; stroke:none;" d="M361 24L362 25L361 24z"/>
<path style="fill:#47a4b5; stroke:none;" d="M410 24L412 26L410 24z"/>
<path style="fill:#29e0ec; stroke:none;" d="M414 24L415 25L414 24z"/>
<path style="fill:#47a4b5; stroke:none;" d="M416 24L417 25L416 24z"/>
<path style="fill:#236674; stroke:none;" d="M531 24L532 25L531 24M616 24L617 25L616 24M701 24L702 25L701 24M786 24L787 25L786 24M325 25L326 26L325 25M361 25L362 26L361 25M410 25L411 26L410 25z"/>
<path style="fill:#47a4b5; stroke:none;" d="M418 25L419 26L418 25M420 25L421 26L420 25z"/>
<path style="fill:#1a9fb5; stroke:none;" d="M433 25L434 26L433 25z"/>
<path style="fill:#236674; stroke:none;" d="M501 25L502 26L501 25z"/>
<path style="fill:#1a9fb5; stroke:none;" d="M326 26L327 27L326 26z"/>
<path style="fill:#47a4b5; stroke:none;" d="M360 26L361 27L360 26z"/>
<path style="fill:#236674; stroke:none;" d="M426 26L427 27L426 26M325 27L326 28L325 27z"/>
<path style="fill:#1a9fb5; stroke:none;" d="M329 27L330 28L329 27z"/>
<path style="fill:#236674; stroke:none;" d="M361 27L362 28L361 27M410 27L411 28L410 27z"/>
<path style="fill:#47a4b5; stroke:none;" d="M411 27L412 28L411 27M412 34L413 34C415.577 30.2504 417.451 29.149 422 29C416.929 26.3886 413.712 29.0272 412 34z"/>
<path style="fill:#236674; stroke:none;" d="M247 28L248 29L247 28z"/>
<path style="fill:#47a4b5; stroke:none;" d="M325 28L326 29L325 28M331 28L331 29L355 29L331 28z"/>
<path style="fill:#236674; stroke:none;" d="M385 28L386 29L385 28z"/>
<path style="fill:#47a4b5; stroke:none;" d="M410 28L411 29L410 28z"/>
<path style="fill:#236674; stroke:none;" d="M422 28L422 29L425 29L422 28z"/>
<path style="fill:#47a4b5; stroke:none;" d="M425.667 28.3333L426.333 28.6667L425.667 28.3333z"/>
<path style="fill:#236674; stroke:none;" d="M498 33L499 33L503 29L498 33M508 28L509 29L508 28M604 28L605 29L604 28M192 29L193 30L192 29M245 29L244 31L245 29M277 29L279 32L277 29M324 29L325 30L324 29M330 29L331 30L330 29z"/>
<path style="fill:#151616; stroke:none;" d="M331.379 30.0278C317.149 38.9213 317.111 63.0542 331.379 71.9722C334.859 74.1471 341.065 73 345 73C348.204 73 352.77 73.7762 355.61 71.9722C369.537 63.1284 369.623 38.1907 354.895 30.0278C351.353 28.0644 345.906 29 342 29C338.776 29 334.246 28.2357 331.379 30.0278z"/>
<path style="fill:#236674; stroke:none;" d="M355 29L356 30L355 29z"/>
<path style="fill:#47a4b5; stroke:none;" d="M362 29L363 30L362 29z"/>
<path style="fill:#236674; stroke:none;" d="M390 29L391 30L390 29M409 29L410 30L409 29M415 29L416 30L415 29M585 29L586 30L585 29z"/>
<path style="fill:#47a4b5; stroke:none;" d="M329 30L330 31L329 30z"/>
<path style="fill:#236674; stroke:none;" d="M356 30L357 31L356 30M396 30L397 31L396 30M408 30L409 31L408 30M533 30L534 31L533 30M669.333 30.6667L669.667 31.3333L669.333 30.6667M323 31L324 32L323 31z"/>
<path style="fill:#1a9fb5; stroke:none;" d="M326 31L325 33L326 31z"/>
<path style="fill:#236674; stroke:none;" d="M329 31L330 32L329 31z"/>
<path style="fill:#47a4b5; stroke:none;" d="M357 31L358 32L357 31M363 31L364 32L363 31z"/>
<path style="fill:#1a9fb5; stroke:none;" d="M408 31L409 32L408 31z"/>
<path style="fill:#236674; stroke:none;" d="M414 31L415 32L414 31M158 32L159 33L158 32M243 32L244 33L243 32z"/>
<path style="fill:#47a4b5; stroke:none;" d="M328 32L329 33L328 32z"/>
<path style="fill:#236674; stroke:none;" d="M364 32L365 33L364 32M379 32L380 33L379 32M407 32L408 33L407 32M420 32L421 33L420 32M427 32L428 33L427 32M473 32L474 33L473 32M583 32L584 33L583 32M279 33L282 39L283 39L279 33z"/>
<path style="fill:#47a4b5; stroke:none;" d="M322 33L321 36L322 33z"/>
<path style="fill:#236674; stroke:none;" d="M328 33L329 34L328 33M358 33L359 34L358 33z"/>
<path style="fill:#47a4b5; stroke:none;" d="M364 33L365 34L364 33M407 33L408 34L407 33z"/>
<path style="fill:#151616; stroke:none;" d="M446 33L447 34L446 33z"/>
<path style="fill:#236674; stroke:none;" d="M449 33L451 44L453 37L449 33M242 34L240 38L242 34M321 34L322 35L321 34z"/>
<path style="fill:#1a9fb5; stroke:none;" d="M323 34L323 37L319 38C318.792 42.4954 312.65 47.9083 317 51L325 34L323 34z"/>
<path style="fill:#236674; stroke:none;" d="M327 34L328 35L327 34M334 34L335 35L334 34M365 34L366 35L365 34M394 34L395 35L394 34M406 34L407 35L406 34z"/>
<path style="fill:#29e0ec; stroke:none;" d="M411 34L412 35L411 34z"/>
<path style="fill:#236674; stroke:none;" d="M412 34L413 35L412 34M417 34L418 35L417 34M497 34L495 38L496 38L497 34M582 34L583 35L582 34z"/>
<path style="fill:#47a4b5; stroke:none;" d="M326 35L327 36L326 35z"/>
<path style="fill:#236674; stroke:none;" d="M359 35L360 36L359 35z"/>
<path style="fill:#47a4b5; stroke:none;" d="M410 35L407 41L412 35L410 35z"/>
<path style="fill:#236674; stroke:none;" d="M71 36L72 37L71 36M320 36L321 37L320 36z"/>
<path style="fill:#29e0ec; stroke:none;" d="M321.667 36.3333L322.333 36.6667L321.667 36.3333z"/>
<path style="fill:#236674; stroke:none;" d="M326 36L327 37L326 36z"/>
<path style="fill:#47a4b5; stroke:none;" d="M360 36L361 37L360 36z"/>
<path style="fill:#1a9fb5; stroke:none;" d="M366 36L367 37L366 36z"/>
<path style="fill:#236674; stroke:none;" d="M405 36L406 37L405 36M411 36L412 37L411 36M461 36L462 37L461 36z"/>
<path style="fill:#47a4b5; stroke:none;" d="M320 37L321 38L320 37M325 37L317 51L318 51L325 37z"/>
<path style="fill:#236674; stroke:none;" d="M356 37L357 38L356 37M360 37L361 38L360 37M367 37L368 38L367 37z"/>
<path style="fill:#1a9fb5; stroke:none;" d="M406 37L406 41L407 41L409 37L406 37z"/>
<path style="fill:#236674; stroke:none;" d="M665 37L666 38L665 37M155 38L156 39L155 38z"/>
<path style="fill:#29e0ec; stroke:none;" d="M320 38L321 39L320 38z"/>
<path style="fill:#236674; stroke:none;" d="M325 38L326 39L325 38z"/>
<path style="fill:#47a4b5; stroke:none;" d="M361 38L362 39L361 38M367 38L368 39L367 38z"/>
<path style="fill:#1a9fb5; stroke:none;" d="M404 38L405 39L404 38z"/>
<path style="fill:#236674; stroke:none;" d="M410 38L411 39L410 38M417 38L418 39L417 38M198 39L199 40L198 39z"/>
<path style="fill:#47a4b5; stroke:none;" d="M319 39L320 40L319 39z"/>
<path style="fill:#236674; stroke:none;" d="M324 39L325 40L324 39M368 39L369 40L368 39M403 39L404 40L403 39z"/>
<path style="fill:#29e0ec; stroke:none;" d="M407 39L408 40L407 39z"/>
<path style="fill:#236674; stroke:none;" d="M453 39L453 44L456 44L453 39M494 39L495 40L494 39M579 39L580 40L579 39M664 39L665 40L664 39M239 40L240 41L239 40M283 40L284 41L283 40z"/>
<path style="fill:#47a4b5; stroke:none;" d="M318 40L316 45L318 40z"/>
<path style="fill:#1a9fb5; stroke:none;" d="M362 40L363 41L362 40z"/>
<path style="fill:#47a4b5; stroke:none;" d="M403 40L404 41L403 40z"/>
<path style="fill:#236674; stroke:none;" d="M475 40L476 41L475 40M68 41L69 42L68 41M317 41L318 42L317 41M323 41L324 42L323 41z"/>
<path style="fill:#47a4b5; stroke:none;" d="M363 41L364 42L363 41z"/>
<path style="fill:#1a9fb5; stroke:none;" d="M369 41L370 42L369 41z"/>
<path style="fill:#236674; stroke:none;" d="M402 41L403 42L402 41z"/>
<path style="fill:#1a9fb5; stroke:none;" d="M404 41L402 48L399 51L396 51L396 52L400 52C400.862 55.7531 402.036 59.1817 406 60L405 64L406 65L408 65L403.378 52.0895L406 41L404 41z"/>
<path style="fill:#236674; stroke:none;" d="M408 41L409 42L408 41z"/>
<path style="fill:#151616; stroke:none;" d="M450 41L451 42L450 41z"/>
<path style="fill:#236674; stroke:none;" d="M493 41L491 45L492 45L493 41M578 41L579 42L578 41M663 41L664 42L663 41M748 41L749 42L748 41M238 42L237 44L238 42M281 42L282 43L281 42M284 42L286 44L284 42M348 42L349 43L348 42M363 42L364 43L363 42M376 42L377 43L376 42z"/>
<path style="fill:#47a4b5; stroke:none;" d="M402 42L403 43L402 42M407 42L405 46L406 46L407 42z"/>
<path style="fill:#236674; stroke:none;" d="M417 42L418 43L417 42M152 43L151 45L152 43M316 43L317 44L316 43M322 43L323 44L322 43z"/>
<path style="fill:#1a9fb5; stroke:none;" d="M364 43L365 44L364 43z"/>
<path style="fill:#47a4b5; stroke:none;" d="M370 43L371 44L370 43z"/>
<path style="fill:#236674; stroke:none;" d="M401 43L402 44L401 43M407 43L408 44L407 43M662 43L663 44L662 43M66 44L67 45L66 44M282 44L281 46L282 44M371 44L372 45L371 44M286 45L286 47L288 47L286 45M315 45L314 48L315 48L315 45z"/>
<path style="fill:#1a9fb5; stroke:none;" d="M365 45L366 46L365 45M400 45L401 46L400 45z"/>
<path style="fill:#236674; stroke:none;" d="M406 45L407 46L406 45M418 45L419 46L418 45M454 45L455 46L454 45M456 45L457 48L458 48L456 45M150 46L151 47L150 46M283 46L284 47L283 46z"/>
<path style="fill:#47a4b5; stroke:none;" d="M315 46L316 47L315 46z"/>
<path style="fill:#236674; stroke:none;" d="M320 46L321 47L320 46z"/>
<path style="fill:#47a4b5; stroke:none;" d="M366 46L367 47L366 46z"/>
<path style="fill:#236674; stroke:none;" d="M372 46L373 47L372 46M399 46L400 47L399 46z"/>
<path style="fill:#29e0ec; stroke:none;" d="M404 46L405 47L404 46z"/>
<path style="fill:#236674; stroke:none;" d="M405 46L406 47L405 46M490 46L491 47L490 46M575 46L576 47L575 46M366 47L367 48L366 47z"/>
<path style="fill:#47a4b5; stroke:none;" d="M399 47L400 48L399 47M404 47L402 50L404 47z"/>
<path style="fill:#236674; stroke:none;" d="M452 47L453 48L452 47M64 48L65 49L64 48M234 48L233 50L234 48M284 49L284 50C289.238 50 285.733 55.2163 285 58L286 58L288 48L284 49M313 48L288 49C291.629 55.9276 308.961 54.498 316 54L324.712 74L324 89L325 89C326.957 85.6818 328.692 81.0237 332.185 79.0278C348.312 69.8138 367.883 86.6402 368 103L395 99L395 98L374.329 96.3966L362 80C362.08 77.1478 361.847 76.3194 359 76L359 77L361 76L361 77L360 80L358 76L348 77L348 76L353 76L353 75L341 75L341 74L357 73L357 72L329 72C328.91 68.2054 327.65 66.2059 324 65L324 64L326 63L321 59L322 56L316 53L319 52L319 51L313 48M319 48L320 49L319 48z"/>
<path style="fill:#47a4b5; stroke:none;" d="M367 48L368 49L367 48z"/>
<path style="fill:#1a9fb5; stroke:none;" d="M374 48L375 49L374 48z"/>
<path style="fill:#236674; stroke:none;" d="M375 48L375 49L398 49L375 48z"/>
<path style="fill:#1a9fb5; stroke:none;" d="M398 48L399 49L398 48z"/>
<path style="fill:#236674; stroke:none;" d="M404 48L405 49L404 48M489 48L488 50L489 48M659 48L658 51L659 51L659 48M744 48L745 49L744 48z"/>
<path style="fill:#1a9fb5; stroke:none;" d="M311 49L312 50L311 49z"/>
<path style="fill:#47a4b5; stroke:none;" d="M312 49L313 50L312 49z"/>
<path style="fill:#236674; stroke:none;" d="M316 49L317 50L316 49M318 49L319 50L318 49M367 49L368 50L367 49M454 49L455 50L454 49M458 49L459 50L458 49M590 49L591 50L590 49z"/>
<path style="fill:#1a9fb5; stroke:none;" d="M368.333 50.6667L368.667 51.3333L368.333 50.6667M387 50L388 51L387 50M390 51L390 52L396 51L390 51z"/>
<path style="fill:#236674; stroke:none;" d="M403.333 50.6667L403.667 51.3333L403.333 50.6667M424 50L425 51L424 50M573 50L574 51L573 50z"/>
<path style="fill:#151616; stroke:none;" d="M291 51L292 52L291 51z"/>
<path style="fill:#236674; stroke:none;" d="M347 51L348 52L347 51M408 51L409 52L408 51M416 51L417 52L416 51M609 51L610 52L609 51z"/>
<path style="fill:#47a4b5; stroke:none;" d="M310 52L311 53L310 52M313 52L314 53L313 52z"/>
<path style="fill:#1a9fb5; stroke:none;" d="M317 52L320 57L317 52z"/>
<path style="fill:#47a4b5; stroke:none;" d="M318 52L319 53L318 52M375 52L376 53L375 52M398 52L399 55L400 55L398 52z"/>
<path style="fill:#29e0ec; stroke:none;" d="M399 52L400 53L399 52z"/>
<path style="fill:#47a4b5; stroke:none;" d="M403 52L407 60L408 60L403 52z"/>
<path style="fill:#236674; stroke:none;" d="M454 52L453 54L454 52M489 52L490 53L489 52M136 53L137 54L136 53M226 53L227 54L226 53M234 53L235 54L234 53z"/>
<path style="fill:#1a9fb5; stroke:none;" d="M314 53L315 54L314 53z"/>
<path style="fill:#236674; stroke:none;" d="M318.667 53.3333L319.333 53.6667L318.667 53.3333M342 53L343 54L342 53M363 53L364 54L363 53z"/>
<path style="fill:#47a4b5; stroke:none;" d="M367 53L368 54L367 53z"/>
<path style="fill:#236674; stroke:none;" d="M373 53L373 54L394 54L373 53M395 53L395 54L398 54L395 53z"/>
<path style="fill:#1a9fb5; stroke:none;" d="M398 53L399 54L398 53z"/>
<path style="fill:#236674; stroke:none;" d="M450 66L462 54C455.771 51.5928 452.237 61.4931 450 66M465 53L465 54L468 54L465 53M473 53L473 54L476 54L473 53M481 53L482 54L481 53M543 53L544 54L543 53M549 53L550 54L549 53M556 53L557 54L556 53M563.667 53.3333L564.333 53.6667L563.667 53.3333M633 53L634 54L633 53M638 53L639 54L638 53M728 53L729 54L728 53M735 53L736 54L735 53M32 54L33 55L32 54z"/>
<path style="fill:#1a9fb5; stroke:none;" d="M315 54L316 55L315 54z"/>
<path style="fill:#236674; stroke:none;" d="M320 54L321 55L320 54M366 54L367 55L366 54z"/>
<path style="fill:#1a9fb5; stroke:none;" d="M372 54L373 55L372 54z"/>
<path style="fill:#236674; stroke:none;" d="M431 54L432 55L431 54M575 54L576 55L575 54M712 54L713 55L712 54M202 55L201 57L202 55z"/>
<path style="fill:#47a4b5; stroke:none;" d="M315 55L316 56L315 55M320.333 55.6667L320.667 56.3333L320.333 55.6667M366 55L367 56L366 55M400 55L404 63L405 63L400 55z"/>
<path style="fill:#236674; stroke:none;" d="M405 55L406 56L405 55M452 55L453 56L452 55M490 55L491 56L490 55M365 56L366 57L365 56M371 56L372 57L371 56M400.333 56.6667L400.667 57.3333L400.333 56.6667M406 56L407 57L406 56M541 56L542 57L541 56M626 56L627 57L626 56M661 56L662 57L661 56M115 57L114 60L115 57M303 57L304 58L303 57z"/>
<path style="fill:#47a4b5; stroke:none;" d="M321 57L322 58L321 57z"/>
<path style="fill:#1a9fb5; stroke:none;" d="M368 57L369 58L368 57z"/>
<path style="fill:#236674; stroke:none;" d="M420 57L421 58L420 57M432 57L433 58L432 57M681 57L682 58L681 57M686 57L687 58L686 57M200 58L199 60L200 58z"/>
<path style="fill:#1a9fb5; stroke:none;" d="M321 58L322 59L321 58M364 58L365 59L364 58z"/>
<path style="fill:#236674; stroke:none;" d="M370 58L371 59L370 58M401 58L402 59L401 58M407 58L408 59L407 58M238.333 59.6667L238.667 60.3333L238.333 59.6667M284 59L278 71L279 71L284 59z"/>
<path style="fill:#1a9fb5; stroke:none;" d="M319 59L320 60L319 59z"/>
<path style="fill:#47a4b5; stroke:none;" d="M322 59L323 60L322 59z"/>
<path style="fill:#236674; stroke:none;" d="M363 59L364 60L363 59z"/>
<path style="fill:#47a4b5; stroke:none;" d="M369 59L368 61L369 59z"/>
<path style="fill:#236674; stroke:none;" d="M406 59L407 60L406 59M408.333 59.6667L408.667 60.3333L408.333 59.6667M539.333 59.6667L539.667 60.3333L539.333 59.6667z"/>
<path style="fill:#47a4b5; stroke:none;" d="M363 60L364 61L363 60z"/>
<path style="fill:#1a9fb5; stroke:none;" d="M366 60L359 67C358.582 72.7159 353.189 75.3238 348 76L348 77L356 75L355 77L358 76L360 80L361 76L359 77L361 74L358 75C361.396 71.4201 367.461 65.3476 366 60z"/>
<path style="fill:#236674; stroke:none;" d="M369 60L370 61L369 60M402 60L403 61L402 60M405.333 60.6667L405.667 61.3333L405.333 60.6667M28 61L29 62L28 61M198 61L197 64L198 61z"/>
<path style="fill:#1a9fb5; stroke:none;" d="M319 61L320 62L319 61M322 61L320 64L322 61z"/>
<path style="fill:#47a4b5; stroke:none;" d="M323 61L324 62L323 61z"/>
<path style="fill:#236674; stroke:none;" d="M362 61L363 62L362 61M368 61L369 62L368 61M403 61L404 62L403 61M409 61L406 64L405 64L410.073 75L408 86L403 92L410 84L411 84L409 89L410 89C415.571 79.8992 421.863 75.6591 433 76L433 75L420 75L421 73L420 73L409 61M448 61L449 62L448 61M708 61L709 62L708 61z"/>
<path style="fill:#47a4b5; stroke:none;" d="M324 62L325 63L324 62z"/>
<path style="fill:#1a9fb5; stroke:none;" d="M362 62L363 63L362 62z"/>
<path style="fill:#47a4b5; stroke:none;" d="M365 64L366 65L368 62L365 64z"/>
<path style="fill:#236674; stroke:none;" d="M406 62L407 63L406 62M112 63L113 64L112 63z"/>
<path style="fill:#1a9fb5; stroke:none;" d="M323 63L324 64L323 63z"/>
<path style="fill:#236674; stroke:none;" d="M361 63L362 64L361 63M367 63L368 64L367 63M404 63L405 64L404 63M447 63L448 64L447 63M622 63L621 65L622 63z"/>
<path style="fill:#1a9fb5; stroke:none;" d="M324 64L325 65L324 64z"/>
<path style="fill:#47a4b5; stroke:none;" d="M325 64L326 65L325 64M361 64L362 65L361 64z"/>
<path style="fill:#29e0ec; stroke:none;" d="M365.333 64.6667L365.667 65.3333L365.333 64.6667z"/>
<path style="fill:#236674; stroke:none;" d="M536 64L535 67L536 64M111 65L112 66L111 65M360 65L359 67L360 65M366 65L367 66L366 65z"/>
<path style="fill:#47a4b5; stroke:none;" d="M406 65L407 66L406 65z"/>
<path style="fill:#236674; stroke:none;" d="M434 65L435 66L434 65M446 65L447 66L446 65M706 65L707 66L706 65z"/>
<path style="fill:#47a4b5; stroke:none;" d="M360.333 66.6667L360.667 67.3333L360.333 66.6667M364 66L362 72L363 72L364 66z"/>
<path style="fill:#236674; stroke:none;" d="M365 66L366 67L365 66z"/>
<path style="fill:#1a9fb5; stroke:none;" d="M407 66L408 67L407 66z"/>
<path style="fill:#236674; stroke:none;" d="M569 66L570 67L569 66z"/>
<path style="fill:#1a9fb5; stroke:none;" d="M326 67L327 68L326 67z"/>
<path style="fill:#236674; stroke:none;" d="M334 67L335 68L334 67M445 67L446 68L445 67M449 67L445 76L446 76L449 67M705 67L704 69L705 67M24 68L25 69L24 68M109 68L110 69L109 68M194 68L195 69L194 68z"/>
<path style="fill:#47a4b5; stroke:none;" d="M327 68L328 69L327 68z"/>
<path style="fill:#236674; stroke:none;" d="M358 68L359 69L358 68z"/>
<path style="fill:#47a4b5; stroke:none;" d="M359 68L360 69L359 68z"/>
<path style="fill:#236674; stroke:none;" d="M364 68L365 69L364 68z"/>
<path style="fill:#47a4b5; stroke:none;" d="M408 68L409 69L408 68z"/>
<path style="fill:#236674; stroke:none;" d="M498 68L499 69L498 68M534 68L535 69L534 68z"/>
<path style="fill:#47a4b5; stroke:none;" d="M358 69L357 73L358 73L358 69z"/>
<path style="fill:#236674; stroke:none;" d="M618.333 69.6667L618.667 70.3333L618.333 69.6667M108 70L109 71L108 70z"/>
<path style="fill:#47a4b5; stroke:none;" d="M328 70L329 71L328 70z"/>
<path style="fill:#236674; stroke:none;" d="M357 70L358 71L357 70M363 70L364 71L363 70M245 71L246 72L245 71z"/>
<path style="fill:#47a4b5; stroke:none;" d="M329 71L330 72L329 71z"/>
<path style="fill:#236674; stroke:none;" d="M702 71L703 72L702 71M277 72L276 74L277 72z"/>
<path style="fill:#47a4b5; stroke:none;" d="M361 72L359 75L361 72z"/>
<path style="fill:#236674; stroke:none;" d="M21 73L22 74L21 73M106 73L107 74L106 73M191 73L192 74L191 73M358 73L358 75L360 73L358 73M361 73L362 74L361 73M441 73L442 74L441 73M531 73L532 74L531 73M616 73L617 74L616 73M701 73L702 74L701 73z"/>
<path style="fill:#1a9fb5; stroke:none;" d="M335.667 74.3333L336.333 74.6667L335.667 74.3333M339 74L340 75L339 74M341 74L341 75L352 75L341 74z"/>
<path style="fill:#47a4b5; stroke:none;" d="M352 74L353 75L352 74z"/>
<path style="fill:#236674; stroke:none;" d="M385 74L386 75L385 74M433 74L434 75L433 74M436.667 74.3333L437.333 74.6667L436.667 74.3333M633 74L634 75L633 74M638 74L639 75L638 74M652 74L653 75L652 74M190 75L191 76L190 75M354.667 75.3333L355.333 75.6667L354.667 75.3333z"/>
<path style="fill:#151616; stroke:none;" d="M423 75L421 76L421 77L423 75z"/>
<path style="fill:#47a4b5; stroke:none;" d="M353.667 76.3333L354.333 76.6667L353.667 76.3333z"/>
<path style="fill:#236674; stroke:none;" d="M427 77L427 78L432 78L427 77M705 76L706 77L705 76M710 76L711 77L710 76M434.667 77.3333L435.333 77.6667L434.667 77.3333M437.667 77.3333L438.333 77.6667L437.667 77.3333M586 77L584 80L586 77M589 77L590 78L589 77M75 78L76 79L75 78M277 78L278 79L277 78z"/>
<path style="fill:#1a9fb5; stroke:none;" d="M361 78L362 79L361 78z"/>
<path style="fill:#236674; stroke:none;" d="M442 78L443 79L442 78M447 78L448 79L447 78M592 78L593 79L592 78M617 78L618 79L617 78M620 78L621 79L620 78M633 78L634 79L633 78M638 78L639 79L638 78M640 78L641 79L640 78M670 78L671 79L670 78M674 78L675 79L674 78M688 78L689 79L688 78M702 78L703 79L702 78z"/>
<path style="fill:#47a4b5; stroke:none;" d="M362 79L363 80L362 79z"/>
<path style="fill:#151616; stroke:none;" d="M411 79L411 83L412 83L413 79L411 79z"/>
<path style="fill:#236674; stroke:none;" d="M499 79L498 83L499 83L501 79L499 79M244 80L243 83L244 83L244 80M513 80L514 81L513 80M669 80L668 82L669 80M705 80L706 81L705 80M73 81L74 82L73 81z"/>
<path style="fill:#47a4b5; stroke:none;" d="M363 81L364 82L363 81z"/>
<path style="fill:#236674; stroke:none;" d="M753 81L754 82L753 81M419 82L420 83L419 82M449 82L450 83L449 82M583 82L581 85L583 82M590 82L591 83L590 82M633 82L634 83L633 82M638 82L639 83L638 82M654 82L655 83L654 82M679 82L680 83L679 82M630 83L631 84L630 83M752 83L751 85L752 83M321 84L320 88L321 88L323 87L321 84z"/>
<path style="fill:#151616; stroke:none;" d="M325 84L326 85L325 84z"/>
<path style="fill:#236674; stroke:none;" d="M334 84L335 85L334 84M496 84L493 91L494 91L496 84M513 84L514 85L513 84M621 84L622 85L621 84M650 84L651 85L650 84M669 84L670 85L669 84M156 85L157 86L156 85M240 86L241 87L240 86M282 86L283 87L282 86M452 86L453 87L452 86M487 86L488 87L487 86M537 86L538 87L537 86M583 86L584 87L583 86M585 86L586 87L585 86M633 86L634 87L633 86M638 86L639 87L638 86M640 86L641 87L640 86M654 86L655 87L654 86M665 86L664 89L665 86M681 86L682 87L681 86M686 86L687 87L686 86M644 87L645 88L644 87M154 88L155 89L154 88M538 88L539 89L538 88M579 88L580 89L579 88M677 88L678 89L677 88M323 89L318 99L319 99L323 89M408 89L405 91L403 101L408 89M685 89L686 90L685 89M386 90L387 91L386 90M446 90L447 91L446 90M578 90L579 91L578 90M624 90L625 91L624 90M654 90L655 91L654 90M663 90L664 91L663 90M748 90L749 91L748 90M638 91L637 93L638 91M665 91L666 92L665 91M679 91L680 92L679 91M237 92L236 94L237 92M402 92L403 93L402 92M492 92L491 94L492 92M540 92L541 93L540 92M662 92L660 96L662 92M671 92L672 93L671 92M685 92L686 93L685 92M747 92L746 94L747 92M286 93L287 94L286 93M401 94L400 97L401 97L401 94M585 94L586 95L585 94M633 94L634 95L633 94M668 94L669 95L668 94M150 95L151 96L150 95M490 95L491 96L490 95M542 95L543 96L542 95M575 95L576 96L575 95M645 95L646 96L645 95M652 95L653 96L652 95M702 95L703 96L702 95z"/>
<path style="fill:#151616; stroke:none;" d="M369 97L369 98L373 99L371 96L369 97z"/>
<path style="fill:#236674; stroke:none;" d="M435 97L436 98L435 97M489 97L488 100L489 97M574 97L575 98L574 97M659 97L658 100L659 100L659 97M662 97L661 99L662 97M664 97L665 98L664 97M671 97L672 98L671 97M744 97L745 98L744 97M233 98L234 99L233 98M399 98L400 99L399 98M675 98L674 100L675 98M689 98L690 99L689 98M702 98L703 99L702 98M396 99L397 100L396 99M592 99L593 100L592 99M619 99L620 100L619 99M665 99L666 100L665 99M672 99L671 101L672 99M679 99L678 101L679 99M743 99L744 100L743 99M370 108L371 108L378 102C373.521 99.7298 371.188 104.093 370 108M692 100L691 102L692 100M706 100L707 101L706 100M379 103L382 102L379 103M383 101L383 102L392 102L383 101M393 101L393 102L396 102L393 101M399.667 101.333L400.333 101.667L399.667 101.333M669 101L670 102L669 101M288 102L287 104L288 102M308 102L309 103L308 102M311 102L312 103L311 102M370 102L371 103L370 102M404 102L405 103L404 102M458 102L457 104L458 102M468 102L469 103L468 102M555 102L556 103L555 102M723 102L724 103L723 102M798 102L799 103L798 102M117 103L118 104L117 103M202 103L203 104L202 103M330 103L331 104L330 103M367 103L369 105L367 103M542 103L543 104L542 103M660 103L661 104L660 103M679 103L680 104L679 103M686 103L686 104L689 104L686 103M693 103L694 104L693 103M695 103L696 104L695 103M701 103L702 104L701 103M712 103L713 104L712 103M699 104L700 105L699 104M201 105L202 106L201 105M286 105L285 107L286 105M456 105L454 109L455 109L456 105M491 105L492 106L491 105M541 105L540 107L541 105M662 105L663 106L662 105M664 105L665 106L664 105M669 105L670 106L669 105M671 105L672 106L671 105M678 105L679 106L678 105M683 105L679 107L679 108L683 105M697 105L698 106L697 105M711 105L712 106L711 105M321 106L323 108L321 106M366 106L367 107L366 106M200 107L201 108L200 107M407 107L410 110L407 107M578 107L579 108L578 107M667 107L668 108L667 107M674 107L675 108L674 107M686 107L687 108L686 107M688 107L689 108L688 107M695 107L696 108L695 107M701 107L702 108L701 107M715 107L716 108L715 107M114.333 108.667L114.667 109.333L114.333 108.667z"/>
<path style="fill:#47a4b5; stroke:none;" d="M369 108L370 109L369 108z"/>
<path style="fill:#236674; stroke:none;" d="M493 108L494 109L493 108M610 108L611 109L610 108M665 108L664 110L665 108M699 108L700 109L699 108M709 108L710 109L709 108M368.333 109.667L368.667 110.333L368.333 109.667M518 109L519 110L518 109M539 109L536 114L537 114L539 109M566 109L567 110L566 109M581 109L582 110L581 109M595 109L596 110L595 109M669 109L670 110L669 109M678 109L679 110L678 109M691 109L692 110L691 109M697 109L698 110L697 109M733 109L734 110L733 109M283 110L281 114L282 114L283 110M453 110L450 116L451 116L453 110M708 110L705 116L706 116L708 110M367.333 111.667L367.667 112.333L367.333 111.667M495 111L496 112L495 111M667 111L668 112L667 111M674 111L675 112L674 111M688 111L689 112L688 111M695 111L696 112L695 111M362 112L363 113L362 112M672 112L673 113L672 112M679 112L677 113L677 114L679 112M366.333 113.667L366.667 114.333L366.333 113.667M561 113L562 114L561 113M609 113L610 114L609 113M684.667 113.333L685.333 113.667L684.667 113.333M691.667 113.333L692.333 113.667L691.667 113.333M669 114L667 115L667 116L669 114M671 114L672 115L671 114M682 114L681 116L682 114M689 114L688 116L689 114M280 115L281 116L280 115M365 115L364 117L366 117L365 115M535 115L536 116L535 115M558 115L559 116L558 115M592 115L593 116L592 115M597 115L598 116L597 115M679 115L680 116L679 115M695 115L696 116L695 115M729 115L730 116L729 115M507 116L508 117L507 116M603 116L604 117L603 116M672 116L673 117L672 116M73 117L74 118L73 117M194 117L195 118L194 117M279 117L280 118L279 117M449 117L446 123L447 123L449 117M534 117L535 118L534 117M595 117L596 118L595 117M670 117L669 119L670 117M676 117L677 118L676 117M684 117L685 118L684 117M689 117L690 118L689 117M691 117L692 118L691 117M704.667 117.333L705.333 117.667L704.667 117.333M363 118L361 123L362 123L363 118M682 118L681 120L682 118M108 119L109 120L108 119M193 119L194 120L193 119M278 119L279 120L278 119M585 119L586 120L585 119M688 119L689 120L688 119M693 121L696 120L693 121M703 119L702 121L703 119M709 119L710 120L709 119M670 120L671 121L670 120M672.667 120.333L673.333 120.667L672.667 120.333M679 120L680 121L679 120M277 121L276 123L277 121M532 121L531 126L532 126L532 121M705 121L706 122L705 121M726 121L727 122L726 121M106 122L107 123L106 122M191 122L192 123L191 122M701 122L703 124L701 122M700 124L701 125L700 124M446 125L447 126L446 125M719 125L720 126L719 125M277 126L278 127L277 126M710 126L711 127L710 126M726 126L727 127L726 126M75 127L74 129L75 127M330 127L329 129L330 127M362 127L363 128L362 127M447 127L448 128L447 127M500 127L501 128L500 127M558 127L559 128L558 127M670 127L671 128L670 127M675 127L674 129L675 127M682 127L683 128L682 127M685 127L671 139L672 139C675.301 135.876 686.959 132.097 685 127M688.333 127.667L688.667 128.333L688.333 127.667M702 127L703 128L702 127M716 127L717 128L716 127M414 128L413 131L414 128M576 128L577 129L576 128M674 133L681 129L674 133M693 128L691 131L693 128M707 128L708 129L707 128M741 128L742 129L741 128M754 128L753 131L754 128M667 133L672 131C669.319 129.678 668.434 130.491 667 133M73.3333 130.667L73.6667 131.333L73.3333 130.667M243 130L244 131L243 130M498 130L499 131L498 130M704.667 130.333L705.333 130.667L704.667 130.333M688 131L685 133L685 134L688 131M696 131L695 133L696 131M709 131L710 132L709 131M716 131L715 133L716 131M723 131L724 132L723 131M157 132L158 133L157 132M365 132L366 133L365 132M412 132L411 134L412 132M535 132L536 133L535 132M542 132L543 133L542 132M569 132L570 133L569 132M672 132L671 134L672 132M693 132L690 134L690 135L693 132M707 132L706 134L707 132M326 133L325 136L326 133M669 133L667 137L669 133M71 134L72 135L71 134M496 134L494 138L495 138L496 134M536 134L537 135L536 134M666 134L663 140L666 134M683 134L677 139L683 134M697.667 134.333L698.333 134.667L697.667 134.333M710 134L711 135L710 134M719 134L720 135L719 134M410 135L411 136L410 135M750 135L751 136L750 135M282 136L283 137L282 136M542 136L543 137L542 136M686 136L684 139L686 136M688 136L689 137L688 136M693 136L693 137L696 137L693 136M708 136L709 137L708 136M741 136L742 137L741 136M324 137L325 138L324 137M409 137L408 140L409 137M453 137L454 138L453 137M699 137L695 141L700 138L699 137M547 138L548 139L547 138M554 138L555 139L554 138M566 138L567 139L566 138M669 138L664 143L669 142L669 138M690.667 138.333L691.333 138.667L690.667 138.333M712 138L713 139L712 138M719 138L720 139L719 138M238 139L239 140L238 139M454 139L455 140L454 139M493 139L494 140L493 139M682 139L682 142L683 142L682 139M152 140L153 141L152 140M322 140L323 141L322 140M370 140L371 141L370 140M569 140L570 141L569 140M674 140L676 142L674 140M679 140L676 144L679 140M686 140L687 141L686 140M688 140L689 141L688 140M693 140L691 143L693 140M722 140L723 141L722 140M729 140L730 141L729 140M406.667 141.333L407.333 141.667L406.667 141.333M541 141L542 142L541 141M662 141L658 150L662 149L662 148L659 149L662 141M672 141L671 143L672 141M699.333 141.667L699.667 142.333L699.333 141.667M720 141L719 143L720 141M747 141L746 143L747 141M66 142L67 143L66 142M321 142L322 143L321 142M491 142L492 143L491 142M568 142L569 143L568 142M685 142L686 143L685 142M712 142L713 143L712 142M669 143L668 145L669 143M683 143L684 144L683 143M689 143L688 145L689 143M235 144L234 147L235 147L235 144M320 144L321 145L320 144M372 144L373 145L372 144M405 144L403 148L404 148L405 144M490 144L491 145L490 144M674.333 144.667L674.667 145.333L674.333 144.667M681.333 144.667L681.667 145.333L681.333 144.667M686.333 144.667L686.667 145.333L686.333 144.667M693.333 144.667L693.667 145.333L693.333 144.667M702 144L699 146L699 147L703 145L702 144M716 144L717 145L716 144M757 144L758 145L757 144M149.333 145.667L149.667 146.333L149.333 145.667M665 145L664 148L665 148L665 145M672 145L671 151L672 151L672 145M679 145L674 148L674 149L679 145M744.333 145.667L744.667 146.333L744.333 145.667M319 146L318 148L319 146M662 146L663 147L662 146M691.333 146.667L691.667 147.333L691.333 146.667M669 147L666 150L670 148L669 147M682 147L681 149L682 147M685 147L683 150L683 151C685.785 150.266 686.832 149.471 685 147M689 147L688 149L689 147M696 147L695 149L696 147M705 147L706 148L705 147M63 148L64 149L63 148M148 148L149 149L148 148M679 148L678 151L679 148M693 148L694 149L693 148M700 148L701 149L700 148M743 148L744 149L743 148M662 150L663 151L662 150M664.333 150.667L664.667 151.333L664.333 150.667M669 150L670 151L669 150M689 150L690 151L689 150M692 150L693 151L692 150M697.667 150.333L698.333 150.667L697.667 150.333M704 150L705 151L704 150M373 151L372 153L373 151M395 151L396 152L395 151M558 151L559 152L558 151M628 151L625 156L628 151M634 151L635 152L634 151M641 151L640 154L641 154L641 151M644 151L645 152L644 151M647.667 151.333L648.333 151.667L647.667 151.333M719 151L720 152L719 151M32 152L33 153L32 152M117 152L118 153L117 152M202 152L203 153L202 152M287 152L288 153L287 152M457 152L458 153L457 152M542 152L543 153L542 152M660 152L662 156L663 156L660 152M668 152L669 156L663 157L664 160C667.378 157.976 670.293 155.933 668 152M674.333 152.667L674.667 153.333L674.333 152.667M677 156L683 153L677 156M695.333 152.667L695.667 153.333L695.333 152.667M702 152L703 153L702 152M712 152L713 153L712 152M716 152L717 153L716 152M631 153L630 155L631 153M633 153L634 154L633 153M638 153L637 155L638 153M645 153L646 154L645 153M647 153L648 154L647 153M650 156L651 156L653 154L650 156M665 153L664 155L666 155L665 153M672 153L672 157L673 157L672 153M686 153L674 162L686 153M688 153L689 154L688 153M693 153L691 156L693 153M700 153L696 155L696 156L701 154L700 153M714 153L715 154L714 153M729 153L730 154L729 153M734 153L735 154L734 153M31 154L32 155L31 154M201 154L202 155L201 154M286 154L285 156L286 154M456 154L453 160L454 160L456 154M541 154L542 155L541 154M711 154L710 156L711 154M628 155L623 160L629 160L627 158L627 157L628 155M641 155L642 156L641 155M643 155L644 156L643 155M648 155L644 158L644 159L648 155M200 156L201 157L200 156M654 156L650 160L654 156M675 156L674 158L675 156M723 156L724 157L723 156M29 157L30 158L29 157M369 157L367 161L369 157M630 158L630 159L634 158L630 158M635 159L635 160L643 160C640.238 157.29 638.522 157.614 635 159M681 162L689 158L681 162M693 157L691 160L693 157M695 157L696 158L695 157M695 162L702 158L695 162M709 157L710 158L709 157M715 157L716 158L715 157M721 157L722 158L721 157M729 157L730 158L729 157M734 157L735 158L734 157M748 157L749 158L748 157M672 158L671 160L672 158M713 158L712 160L713 158M113 159L114 160L113 159M198 159L199 160L198 159M283 159L284 160L283 159M538 159L537 162L538 162L538 159M655 159L650 164L657 159L655 159M669 159L665 161L665 162L669 159M708 159L709 160L708 159M719 159L720 160L719 159M282 161L283 162L282 161M452 161L451 164L452 164L452 161M622 161L623 162L622 161M626 161L627 162L626 161M631 161L632 162L631 161M633 161L634 162L633 161M638 161L637 163L638 161M640 161L641 162L640 161M645 161L646 162L645 161M647 161L648 162L647 161M679 161L674 166L678 164L679 165L678 168L684 163L679 165L679 161M686 161L687 162L686 161M688 161L689 162L688 161M693 161L679 169L679 170C683.491 168.948 691.68 165.749 693 161M707 161L705 164L707 161M111 162L112 163L111 162M366 162L367 163L366 162M624 162L623 164L624 162M672 162L671 164L672 162M713 162L712 164L713 162M720 162L721 163L720 162M196 163L197 164L196 163M621 163L619 167L620 167L621 163M630 163L631 164L630 163M643 163L644 164L643 163M650 168L658 168L658 167L655 166L655 165L658 164L650 168M669 163L667 166L669 163M685 163L686 164L685 163M697 163L695 166L697 163M280 164L281 165L280 164M535 164L536 165L535 164M634 164L633 166L634 164M641 164L640 166L641 164M648 164L647 166L648 164M109.333 165.667L109.667 166.333L109.333 165.667M413.333 165.667L413.667 166.333L413.333 165.667M542 165L543 166L542 165M626 165L627 166L626 165M631 165L632 166L631 165M638 165L635 167L635 168L638 165M659 165L660 166L659 165M672 165L669 167L669 168L672 165M693 165L691 168L693 165M704 165L703 168L708 165L704 165M709 165L710 166L709 165M729 165L730 166L729 165M279 166L280 167L279 166M534 166L533 168L534 166M644 166L645 167L644 166M713 166L712 168L713 166M720 166L719 168L720 166M740 166L741 167L740 166M448 167L447 170L448 167M499 167L500 168L499 167M642 167L643 168L642 167M676 167L672 169L672 170L676 167M689 167L690 168L689 167M278 168L279 169L278 168M329 168L330 169L329 168M654.333 168.667L654.667 169.333L654.333 168.667M22 169L23 170L22 169M107 169L108 170L107 169M617 169L616 172L617 169M626 169L627 170L626 169M631 169L629 172L631 169M633 169L634 170L633 169M638 169L639 170L638 169M640 169L641 170L640 169M645 169L640 174L645 169M651 169L650 173L651 173L653 169L651 169M660.667 169.333L661.333 169.667L660.667 169.333M686 169L687 170L686 169M688 169L689 170L688 169M692.667 169.333L693.333 169.667L692.667 169.333M702 169L701 172L702 169M709 169L710 170L709 169M362 170L361 172L362 170M658 170L659 171L658 170M706 170L707 171L706 170M21 171L22 172L21 171M106 171L107 172L106 171M446 171L447 172L446 171M621 171L622 172L621 171M637 171L638 172L637 171M648 171L649 172L648 171M655 171L656 172L655 171M663 171L664 172L663 171M719 171L720 172L719 171M786 171L787 172L786 171M624.333 173.667L624.667 174.333L624.333 173.667M645 173L646 174L645 173M647 173L648 174L647 173M652 173L650 177L652 173M654 173L655 174L654 173M661 173L662 174L661 173M701.333 173.667L701.667 174.333L701.333 173.667M446 174L447 175L446 174M631 174L632 175L631 174M633 174L634 175L633 174M638 174L637 176L638 174M707 174L708 175L707 174M85 175L86 176L85 175M644 175L645 176L644 175M671 175L661 192L662 192L671 175M674 175L675 176L674 175M674 179L680 176L674 179M683 176L683 177L686 177L683 176M691 175L691 177L693 175L691 175M160 176L159 178L160 176M245 176L246 177L245 176M415 176L416 177L415 176M641 176L642 177L641 176M654 179L655 179L657 177L654 179M662 176L657 181L662 176M724 176L725 177L724 176M74 177L68 188L69 188L74 177M584.667 177.333L585.333 177.667L584.667 177.333M634 177L633 179L634 177M647 177L643 181L648 178L647 177M709 177L710 178L709 177M597 178L598 179L597 178M619 178L620 179L619 178M624 178L625 179L624 178M638 178L637 180L638 178M672 178L673 179L672 178M679 178L678 181L679 181L679 178M681 178L682 179L681 178M686 178L686 179L690 180L685 183L685 184L691 181L686 178M693 178L692 180L693 178M707 178L708 179L707 178M328 179L329 180L328 179M498 179L499 180L498 179M704 179L706 181L704 179M712 179L713 180L712 179M753 179L754 180L753 179M157 180L158 181L157 180M243 180L244 181L243 180M609 180L610 181L609 180M655 180L656 181L655 180M670 180L671 181L670 180M696 180L697 181L696 180M710 180L711 181L710 180M719 180L720 181L719 180M105 181L106 182L105 181M582 181L583 182L582 181M599 181L600 182L599 181M606 181L607 182L606 181M647 181L648 182L647 181M675 181L676 182L675 181M693 181L692 184L693 181M716 181L717 182L716 181M110 182L112 184L110 182M156 182L154 186L156 182M411 182L412 183L411 182M633 182L634 183L633 182M638 182L637 184L638 182M640 182L641 183L640 182M673 182L674 183L673 182M679 182L677 185L679 182M681 182L682 183L681 182M695 182L696 183L695 182M706.333 182.667L706.667 183.333L706.333 182.667M713 182L714 183L713 182M751 182L752 183L751 182M644 183L645 184L644 183M658 183L657 185L658 183M671 183L672 184L671 183M698 183L699 184L698 183M240 184L241 185L240 184M410 184L411 185L410 184M609 184L610 185L609 184M622 184L623 185L622 184M650 184L651 185L650 184M655 184L652 186L652 187L655 184M689 184L690 185L689 184M613 185L614 186L613 185M668 185L667 187L668 185M682 185L681 187L682 185M709 185L708 187L709 185M108 186L109 189L110 189L108 186M239 186L240 187L239 186M324 186L325 187L324 186M590 186L591 187L590 186M604 186L605 187L604 186M626 186L627 187L626 186M631 186L629 189L631 186M638 186L639 187L638 186M640 186L641 187L640 186M645 186L642 188L642 189L645 186M672 186L673 187L672 186M674 186L675 187L674 186M679 186L676 188L676 189L679 186M686 186L686 187L689 187L686 186M693 186L690 188L690 189L693 186M695 186L696 187L695 186M700 186L699 188L700 186M714.667 186.333L715.333 186.667L714.667 186.333M734 186L735 187L734 186M749 186L750 187L749 186M112 187L113 188L112 187M153 187L150 193L153 187M493 187L494 188L493 187M579 187L578 189L579 187M582 187L583 188L582 187M238 188L239 189L238 188M408 188L409 189L408 188M609 188L610 189L609 188M614 188L613 190L614 188M636 188L637 189L636 188M650 188L651 189L650 188M670.667 188.333L671.333 188.667L670.667 188.333M719 188L720 189L719 188M726 188L727 189L726 188M748 188L747 190L748 188M64 189L65 190L64 189M67 189L66 192L67 189M111 189L112.393 199L104 215C113.735 214.681 112.408 205.378 119.379 201.028C124.927 197.566 137.572 200 144 200L144 199L134 199L134 198L137 197L137 196C129.13 196 121.452 197.616 116 191L111 189M114.333 189.667L114.667 190.333L114.333 189.667M654 189L652 190L652 191L654 189M682 189L681 191L682 189M696 189L695 191L696 189M710 189L711 190L710 189M200 190L201 191L200 190M322 190L321 192L322 190M407 190L408 191L407 190M577 190L578 191L577 190M626 190L627 191L626 190M631 190L632 191L631 190M633 190L634 191L633 190M638 190L639 191L638 190M640 190L641 191L640 190M645 190L646 191L645 190M647 190L648 191L647 190M667.667 190.333L668.333 190.667L667.667 190.333M672 190L673 191L672 190M674 190L675 191L674 190M679 190L680 191L679 190M686 190L687 191L686 190M688 190L689 191L688 190M701 190L702 191L701 190M715 190L716 191L715 190M722 190L723 191L722 190M236 191L237 192L236 191M286 191L287 192L286 191M62 192L60 196L62 192M65 192L58 199L59 196L53 196L55 199L49 199L49 200L62 199C58.8386 206.331 65.4547 214.753 73 215L65 192M636 192L637 193L636 192M650 192L651 193L650 192M684 192L685 193L684 192M691 192L692 193L691 192M712 192L713 193L712 192M746 192L747 193L746 192z"/>
<path style="fill:#151616; stroke:none;" d="M113 193L114 194L113 193z"/>
<path style="fill:#236674; stroke:none;" d="M235 193L236 194L235 193M490 193L491 194L490 193M575 193L576 194L575 193M660 193L659 196L660 193M682 193L681 195L682 193M149 194L150 195L149 194M667 194L668 195L667 194M672 194L673 195L672 194M674 194L675 195L674 194M688 194L689 195L688 194z"/>
<path style="fill:#151616; stroke:none;" d="M116 195L117 196L116 195z"/>
<path style="fill:#236674; stroke:none;" d="M144 195L143 197L145 197L144 195M404 195L405 196L404 195M489 195L488 197L489 195M665 195L664 197L665 195M139 196L140 197L139 196M148 196L149 197L148 196M609 196L610 197L609 196M678.333 196.667L678.667 197.333L678.333 196.667M743 196L744 197L743 196M50 197L50 198L53 198L50 197z"/>
<path style="fill:#151616; stroke:none;" d="M128 197L129 198L128 197M131 197L132 198L131 197z"/>
<path style="fill:#236674; stroke:none;" d="M318 197L319 198L318 197M658.333 197.667L658.667 198.333L658.333 197.667M682 197L681 199L682 197M689 197L688 199L689 197z"/>
<path style="fill:#151616; stroke:none;" d="M118 198L119 199L118 198z"/>
<path style="fill:#236674; stroke:none;" d="M145 198L146 199L145 198M606 198L607 199L606 198M661 198L662 199L661 198M667 198L668 199L667 198M674 198L675 199L674 198M686 198L687 199L686 198M40 199L41 200L40 199M44 200L44 201L48 200L44 200z"/>
<path style="fill:#151616; stroke:none;" d="M116 199L117 200L116 199z"/>
<path style="fill:#236674; stroke:none;" d="M147.667 199.333L148.333 199.667L147.667 199.333M32 200L25 214L26 214L32 200M37 200L38 201L37 200M144 200L146 202L144 200M203 200L202 202L203 200M373 200L372 202L373 200M458 200L457 202L458 200M559 200L560 201L559 200M561 200L562 201L561 200M566 200L567 201L566 200M628 200L626 204L627 204L630 201L628 200M636 200L637 201L636 200M642 200L643 201L642 200M649.667 200.333L650.333 200.667L649.667 200.333M664 200L665 201L664 200M669 200L670 201L669 200M678 200L679 201L678 200M704 200L705 201L704 200M717 200L717 201L720 201L717 200M726 200L727 201L726 200M287 201L288 202L287 201M542 201L543 202L542 201M712 201L713 202L712 201M150 202L151 207L150 202M652 202L653 203L652 202M146 203L152 215L155 215L156 211L152 206L151 209L150 209L146 203M201 203L202 204L201 203M286 203L285 205L286 203M672 203L673 204L672 203z"/>
<path style="fill:#151616; stroke:none;" d="M150 204L151 205L150 204z"/>
<path style="fill:#236674; stroke:none;" d="M540 204L541 205L540 204M664 204L665 205L664 204M710 204L708 209L709 209L710 204M625 205L622 210L625 205M369 206L370 207L369 206M454.333 206.667L454.667 207.333L454.333 206.667M539.333 206.667L539.667 207.333L539.333 206.667M638 207L639 208L638 207M674 207L675 208L674 207M693 207L694 208L693 207M197 209L198 210L197 209M367 209L368 210L367 209M650 209L651 210L650 209M537 210L536 212L537 210M196 211L197 212L196 211M451.333 211.667L451.667 212.333L451.333 211.667M605 211L606 212L605 211M666 211L667 212L666 211M706 211L705 214L706 211M692 212L693 213L692 212M156 213L156 215L158 215L156 213M24 214L25 215L24 214M620 214L621 215L620 214M668 214L669 215L668 214z"/>
</svg>
